<svg width="88" height="88" viewBox="0 0 88 88" fill="none" xmlns="http://www.w3.org/2000/svg">
<path d="M6.10352e-05 44C6.10352e-05 19.6995 19.6995 0 44.0001 0C68.3006 0 88.0001 19.6995 88.0001 44C88.0001 68.3005 68.3006 88 44.0001 88C19.6995 88 6.10352e-05 68.3005 6.10352e-05 44Z" fill="#0D0402"/>
<path d="M8.00006 44C8.00006 24.1178 24.1178 8 44.0001 8C63.8823 8 80.0001 24.1178 80.0001 44C80.0001 63.8823 63.8823 80 44.0001 80C24.1178 80 8.00006 63.8823 8.00006 44Z" fill="#FF5733"/>
<path d="M42.3637 29.2727C42.3637 28.369 43.0963 27.6364 44 27.6364C44.9038 27.6364 45.6364 28.369 45.6364 29.2727V42.3636H58.3984C59.3021 42.3636 60.0348 43.0962 60.0348 44C60.0348 44.9037 59.3021 45.6364 58.3984 45.6364H45.6364V58.3983C45.6364 59.3021 44.9038 60.0347 44 60.0347C43.0963 60.0347 42.3637 59.3021 42.3637 58.3983V45.6364H29.2728C28.369 45.6364 27.6364 44.9037 27.6364 44C27.6364 43.0962 28.369 42.3636 29.2728 42.3636H42.3637V29.2727Z" fill="black"/>
<path d="M44 1.59094C20.5781 1.59094 1.59094 20.5781 1.59094 44C1.59094 67.4219 20.5781 86.4091 44 86.4091C67.4219 86.4091 86.4091 67.4219 86.4091 44C86.4091 20.5781 67.4219 1.59094 44 1.59094Z" stroke="#FF5733" stroke-width="3"/>
</svg>
