<svg width="23" height="22" viewBox="0 0 23 22" fill="none" xmlns="http://www.w3.org/2000/svg">
<path d="M6.5 12C6.5 12.5523 6.05229 13 5.5 13C4.94772 13 4.5 12.5523 4.5 12C4.5 11.4477 4.94772 11 5.5 11C6.05229 11 6.5 11.4477 6.5 12Z" fill="#EBD5D1" fill-opacity="0.62"/>
<path d="M10.5 12C10.5 12.5523 10.0523 13 9.5 13C8.94772 13 8.5 12.5523 8.5 12C8.5 11.4477 8.94772 11 9.5 11C10.0523 11 10.5 11.4477 10.5 12Z" fill="#EBD5D1" fill-opacity="0.62"/>
<path d="M13.5 13C14.0523 13 14.5 12.5523 14.5 12C14.5 11.4477 14.0523 11 13.5 11C12.9477 11 12.5 11.4477 12.5 12C12.5 12.5523 12.9477 13 13.5 13Z" fill="#EBD5D1" fill-opacity="0.62"/>
<path d="M18.5 12C18.5 12.5523 18.0523 13 17.5 13C16.9477 13 16.5 12.5523 16.5 12C16.5 11.4477 16.9477 11 17.5 11C18.0523 11 18.5 11.4477 18.5 12Z" fill="#EBD5D1" fill-opacity="0.62"/>
<path d="M5.5 17C6.05229 17 6.5 16.5523 6.5 16C6.5 15.4477 6.05229 15 5.5 15C4.94772 15 4.5 15.4477 4.5 16C4.5 16.5523 4.94772 17 5.5 17Z" fill="#EBD5D1" fill-opacity="0.62"/>
<path d="M10.5 16C10.5 16.5523 10.0523 17 9.5 17C8.94772 17 8.5 16.5523 8.5 16C8.5 15.4477 8.94772 15 9.5 15C10.0523 15 10.5 15.4477 10.5 16Z" fill="#EBD5D1" fill-opacity="0.62"/>
<path d="M13.5 17C14.0523 17 14.5 16.5523 14.5 16C14.5 15.4477 14.0523 15 13.5 15C12.9477 15 12.5 15.4477 12.5 16C12.5 16.5523 12.9477 17 13.5 17Z" fill="#EBD5D1" fill-opacity="0.62"/>
<path fill-rule="evenodd" clip-rule="evenodd" d="M7.85719 2.53247e-07H15.1428C16.2266 -9.52191e-06 17.1007 -1.75089e-05 17.8086 0.0578185C18.5375 0.117368 19.1777 0.243181 19.77 0.544968C20.7108 1.02434 21.4757 1.78924 21.955 2.73005C22.2568 3.32234 22.3826 3.96253 22.4422 4.69138C22.5 5.39923 22.5 6.27334 22.5 7.35706V14.6428C22.5 15.7266 22.5 16.6008 22.4422 17.3086C22.3826 18.0375 22.2568 18.6777 21.955 19.27C21.4757 20.2108 20.7108 20.9757 19.77 21.455C19.1777 21.7568 18.5375 21.8826 17.8086 21.9422C17.1008 22 16.2267 22 15.1429 22H7.85717C6.77344 22 5.89923 22 5.19138 21.9422C4.46253 21.8826 3.82234 21.7568 3.23005 21.455C2.28924 20.9757 1.52434 20.2108 1.04497 19.27C0.743181 18.6777 0.617368 18.0375 0.557819 17.3086C0.499982 16.6007 0.49999 15.7266 0.5 14.6428V7.35719C0.49999 6.27341 0.499983 5.39925 0.557819 4.69138C0.617368 3.96253 0.743181 3.32234 1.04497 2.73005C1.52434 1.78924 2.28924 1.02434 3.23005 0.544968C3.82234 0.243181 4.46253 0.117368 5.19138 0.0578185C5.89925 -1.74046e-05 6.77341 -9.52194e-06 7.85719 2.53247e-07ZM5.35424 2.05118C4.74907 2.10062 4.40138 2.19279 4.13803 2.32698C3.57354 2.6146 3.1146 3.07354 2.82698 3.63803C2.69279 3.90138 2.60062 4.24907 2.55118 4.85424C2.52462 5.17923 2.51185 5.55292 2.5057 6H20.4943C20.4882 5.55292 20.4754 5.17923 20.4488 4.85424C20.3994 4.24907 20.3072 3.90138 20.173 3.63803C19.8854 3.07354 19.4265 2.6146 18.862 2.32698C18.5986 2.19279 18.2509 2.10062 17.6458 2.05118C17.0289 2.00078 16.2366 2 15.1 2H7.9C6.76339 2 5.97108 2.00078 5.35424 2.05118ZM20.5 8H2.5V14.6C2.5 15.7366 2.50078 16.5289 2.55118 17.1458C2.60062 17.7509 2.69279 18.0986 2.82698 18.362C3.1146 18.9265 3.57354 19.3854 4.13803 19.673C4.40138 19.8072 4.74907 19.8994 5.35424 19.9488C5.97108 19.9992 6.76339 20 7.9 20H15.1C16.2366 20 17.0289 19.9992 17.6458 19.9488C18.2509 19.8994 18.5986 19.8072 18.862 19.673C19.4265 19.3854 19.8854 18.9265 20.173 18.362C20.3072 18.0986 20.3994 17.7509 20.4488 17.1458C20.4992 16.5289 20.5 15.7366 20.5 14.6V8Z" fill="#EBD5D1" fill-opacity="0.62"/>
</svg>
