<svg width="265" height="50" viewBox="0 0 265 50" fill="none" xmlns="http://www.w3.org/2000/svg">
<path d="M0 25C0 11.1929 11.1929 0 25 0H240C253.807 0 265 11.1929 265 25C265 38.8071 253.807 50 240 50H25C11.1929 50 0 38.8071 0 25Z" fill="#FF5733"/>
<path d="M94.4643 31.67C93.6483 31.67 92.8776 31.5113 92.1523 31.194C91.427 30.8767 90.7923 30.4403 90.2483 29.885C89.7043 29.3183 89.2736 28.6667 88.9563 27.93C88.6503 27.182 88.4973 26.383 88.4973 25.533C88.4973 24.683 88.6503 23.8897 88.9563 23.153C89.2736 22.4163 89.7043 21.7703 90.2483 21.215C90.8036 20.6483 91.4496 20.212 92.1863 19.906C92.9343 19.5887 93.739 19.43 94.6003 19.43C95.541 19.43 96.4136 19.6113 97.2183 19.974C98.023 20.3367 98.6973 20.8523 99.2413 21.521L97.9153 22.847C97.564 22.3483 97.0936 21.9687 96.5043 21.708C95.915 21.436 95.2803 21.3 94.6003 21.3C93.7843 21.3 93.0646 21.4813 92.4413 21.844C91.8293 22.1953 91.3533 22.6883 91.0133 23.323C90.6733 23.9577 90.5033 24.6943 90.5033 25.533C90.5033 26.3717 90.6733 27.114 91.0133 27.76C91.3646 28.3947 91.835 28.8933 92.4243 29.256C93.0136 29.6187 93.6823 29.8 94.4303 29.8C95.2236 29.8 95.9036 29.6583 96.4703 29.375C97.0483 29.0803 97.4903 28.6497 97.7963 28.083C98.1023 27.505 98.2553 26.7967 98.2553 25.958L99.4793 26.842H94.3963V25.057H100.278V25.329C100.278 26.7457 100.023 27.9243 99.5133 28.865C99.0146 29.8057 98.329 30.5083 97.4563 30.973C96.5836 31.4377 95.5863 31.67 94.4643 31.67ZM105.76 31.67C104.944 31.67 104.207 31.4887 103.55 31.126C102.904 30.752 102.388 30.242 102.003 29.596C101.629 28.95 101.442 28.2247 101.442 27.42C101.442 26.6153 101.629 25.8957 102.003 25.261C102.377 24.615 102.881 24.105 103.516 23.731C104.162 23.357 104.876 23.17 105.658 23.17C106.417 23.17 107.086 23.3457 107.664 23.697C108.253 24.0483 108.712 24.53 109.041 25.142C109.381 25.754 109.551 26.451 109.551 27.233C109.551 27.369 109.54 27.5107 109.517 27.658C109.506 27.794 109.483 27.947 109.449 28.117H102.751V26.587H108.48L107.783 27.199C107.76 26.7003 107.664 26.281 107.494 25.941C107.324 25.601 107.08 25.3403 106.763 25.159C106.457 24.9777 106.077 24.887 105.624 24.887C105.148 24.887 104.734 24.989 104.383 25.193C104.032 25.397 103.76 25.686 103.567 26.06C103.374 26.4227 103.278 26.859 103.278 27.369C103.278 27.879 103.38 28.3267 103.584 28.712C103.788 29.0973 104.077 29.3977 104.451 29.613C104.825 29.817 105.256 29.919 105.743 29.919C106.162 29.919 106.548 29.8453 106.899 29.698C107.262 29.5507 107.568 29.3353 107.817 29.052L109.007 30.259C108.61 30.7237 108.129 31.075 107.562 31.313C106.995 31.551 106.395 31.67 105.76 31.67ZM112.075 31.5V19.94H113.945V31.5H112.075ZM110.12 25.04V23.34H115.9V25.04H110.12ZM124.232 31.67C123.292 31.67 122.493 31.5 121.835 31.16C121.178 30.82 120.589 30.3213 120.067 29.664L121.393 28.338C121.722 28.814 122.113 29.188 122.566 29.46C123.02 29.7207 123.598 29.851 124.3 29.851C124.958 29.851 125.479 29.715 125.864 29.443C126.261 29.171 126.459 28.797 126.459 28.321C126.459 27.9243 126.357 27.6013 126.153 27.352C125.949 27.1027 125.677 26.8987 125.337 26.74C125.009 26.57 124.64 26.4227 124.232 26.298C123.836 26.162 123.433 26.0147 123.025 25.856C122.629 25.686 122.26 25.4763 121.92 25.227C121.592 24.9777 121.325 24.6547 121.121 24.258C120.917 23.8613 120.815 23.357 120.815 22.745C120.815 22.0423 120.985 21.4473 121.325 20.96C121.677 20.4613 122.147 20.0817 122.736 19.821C123.326 19.5603 123.983 19.43 124.708 19.43C125.49 19.43 126.187 19.583 126.799 19.889C127.423 20.195 127.927 20.586 128.312 21.062L126.986 22.388C126.646 22.0027 126.289 21.7193 125.915 21.538C125.553 21.3453 125.133 21.249 124.657 21.249C124.068 21.249 123.603 21.368 123.263 21.606C122.935 21.844 122.77 22.1783 122.77 22.609C122.77 22.9717 122.872 23.2663 123.076 23.493C123.28 23.7083 123.547 23.8953 123.875 24.054C124.215 24.2013 124.584 24.343 124.98 24.479C125.388 24.615 125.791 24.768 126.187 24.938C126.595 25.108 126.964 25.329 127.292 25.601C127.632 25.8617 127.904 26.2017 128.108 26.621C128.312 27.0403 128.414 27.5673 128.414 28.202C128.414 29.2673 128.035 30.1117 127.275 30.735C126.527 31.3583 125.513 31.67 124.232 31.67ZM131.35 31.5V19.94H133.22V31.5H131.35ZM129.395 25.04V23.34H135.175V25.04H129.395ZM139.718 31.67C138.981 31.67 138.313 31.483 137.712 31.109C137.123 30.735 136.652 30.2307 136.301 29.596C135.961 28.95 135.791 28.2303 135.791 27.437C135.791 26.6323 135.961 25.9127 136.301 25.278C136.652 24.632 137.123 24.122 137.712 23.748C138.313 23.3627 138.981 23.17 139.718 23.17C140.341 23.17 140.891 23.306 141.367 23.578C141.854 23.8387 142.24 24.2013 142.523 24.666C142.806 25.1307 142.948 25.6577 142.948 26.247V28.593C142.948 29.1823 142.806 29.7093 142.523 30.174C142.251 30.6387 141.871 31.007 141.384 31.279C140.897 31.5397 140.341 31.67 139.718 31.67ZM140.024 29.902C140.715 29.902 141.271 29.6697 141.69 29.205C142.121 28.7403 142.336 28.1453 142.336 27.42C142.336 26.9327 142.24 26.502 142.047 26.128C141.854 25.754 141.582 25.465 141.231 25.261C140.891 25.0457 140.489 24.938 140.024 24.938C139.571 24.938 139.168 25.0457 138.817 25.261C138.477 25.465 138.205 25.754 138.001 26.128C137.808 26.502 137.712 26.9327 137.712 27.42C137.712 27.9073 137.808 28.338 138.001 28.712C138.205 29.086 138.477 29.3807 138.817 29.596C139.168 29.8 139.571 29.902 140.024 29.902ZM142.217 31.5V29.307L142.54 27.318L142.217 25.346V23.34H144.087V31.5H142.217ZM146.162 31.5V23.34H148.032V31.5H146.162ZM148.032 26.961L147.386 26.638C147.386 25.6067 147.613 24.7737 148.066 24.139C148.531 23.493 149.228 23.17 150.157 23.17C150.565 23.17 150.934 23.2437 151.262 23.391C151.591 23.5383 151.897 23.7763 152.18 24.105L150.956 25.363C150.809 25.2043 150.645 25.091 150.463 25.023C150.282 24.955 150.072 24.921 149.834 24.921C149.313 24.921 148.882 25.0853 148.542 25.414C148.202 25.7427 148.032 26.2583 148.032 26.961ZM154.343 31.5V19.94H156.213V31.5H154.343ZM152.388 25.04V23.34H158.168V25.04H152.388ZM163.085 31.67C162.269 31.67 161.533 31.4887 160.875 31.126C160.229 30.752 159.714 30.242 159.328 29.596C158.954 28.95 158.767 28.2247 158.767 27.42C158.767 26.6153 158.954 25.8957 159.328 25.261C159.702 24.615 160.207 24.105 160.841 23.731C161.487 23.357 162.201 23.17 162.983 23.17C163.743 23.17 164.411 23.3457 164.989 23.697C165.579 24.0483 166.038 24.53 166.366 25.142C166.706 25.754 166.876 26.451 166.876 27.233C166.876 27.369 166.865 27.5107 166.842 27.658C166.831 27.794 166.808 27.947 166.774 28.117H160.076V26.587H165.805L165.108 27.199C165.086 26.7003 164.989 26.281 164.819 25.941C164.649 25.601 164.406 25.3403 164.088 25.159C163.782 24.9777 163.403 24.887 162.949 24.887C162.473 24.887 162.06 24.989 161.708 25.193C161.357 25.397 161.085 25.686 160.892 26.06C160.7 26.4227 160.603 26.859 160.603 27.369C160.603 27.879 160.705 28.3267 160.909 28.712C161.113 29.0973 161.402 29.3977 161.776 29.613C162.15 29.817 162.581 29.919 163.068 29.919C163.488 29.919 163.873 29.8453 164.224 29.698C164.587 29.5507 164.893 29.3353 165.142 29.052L166.332 30.259C165.936 30.7237 165.454 31.075 164.887 31.313C164.321 31.551 163.72 31.67 163.085 31.67ZM171.792 31.67C171.056 31.67 170.387 31.483 169.786 31.109C169.197 30.735 168.727 30.2307 168.375 29.596C168.035 28.95 167.865 28.2303 167.865 27.437C167.865 26.6323 168.035 25.9127 168.375 25.278C168.727 24.632 169.197 24.122 169.786 23.748C170.387 23.3627 171.056 23.17 171.792 23.17C172.416 23.17 172.965 23.306 173.441 23.578C173.929 23.8387 174.314 24.2013 174.597 24.666C174.881 25.1307 175.022 25.6577 175.022 26.247V28.593C175.022 29.1823 174.881 29.7093 174.597 30.174C174.325 30.6387 173.946 31.007 173.458 31.279C172.971 31.5397 172.416 31.67 171.792 31.67ZM172.098 29.902C172.563 29.902 172.965 29.8 173.305 29.596C173.657 29.3807 173.929 29.086 174.121 28.712C174.314 28.338 174.41 27.9073 174.41 27.42C174.41 26.9327 174.314 26.502 174.121 26.128C173.929 25.754 173.657 25.465 173.305 25.261C172.965 25.0457 172.563 24.938 172.098 24.938C171.645 24.938 171.243 25.0457 170.891 25.261C170.551 25.465 170.279 25.754 170.075 26.128C169.883 26.502 169.786 26.9327 169.786 27.42C169.786 27.9073 169.883 28.338 170.075 28.712C170.279 29.086 170.551 29.3807 170.891 29.596C171.243 29.8 171.645 29.902 172.098 29.902ZM176.161 31.5H174.291V29.307L174.614 27.318L174.291 25.346V19.26H176.161V31.5Z" fill="black"/>
</svg>
