<svg width="18" height="18" viewBox="0 0 18 18" fill="none" xmlns="http://www.w3.org/2000/svg">
<path d="M17.2151 0.78492C16.7087 0.278462 16.0355 0 15.3191 0C14.6027 0 13.9296 0.278462 13.4232 0.78492L1.93378 12.2749C1.88692 12.3217 1.85178 12.3776 1.82925 12.4398L0.0269904 17.3962C-0.0324841 17.5611 0.00806671 17.745 0.131521 17.8684C0.217129 17.954 0.332473 18 0.450521 18C0.501885 18 0.554151 17.991 0.604614 17.973L5.56082 16.1706C5.623 16.1481 5.67887 16.112 5.72573 16.0661L17.2151 4.57615C17.7215 4.06969 18 3.39652 18 2.68008C18 1.96365 17.7215 1.29048 17.2151 0.784019V0.78492ZM5.15892 15.3587L1.20386 16.7969L2.64207 12.8417L12.6158 2.86753L15.1326 5.3845L5.15892 15.3587ZM16.5771 3.93902L15.7697 4.74647L13.2529 2.2295L14.0603 1.42205C14.3964 1.08591 14.8433 0.901172 15.3182 0.901172C15.7931 0.901172 16.2401 1.08591 16.5762 1.42205C16.9123 1.75819 17.0971 2.20517 17.0971 2.68008C17.0971 3.155 16.9123 3.60198 16.5762 3.93812L16.5771 3.93902Z" fill="#EBD5D1"/>
</svg>
