<svg width="18" height="18" viewBox="0 0 18 18" fill="none" xmlns="http://www.w3.org/2000/svg">
<path fill-rule="evenodd" clip-rule="evenodd" d="M0 2C0 0.895431 0.895431 0 2 0H16C17.1046 0 18 0.895431 18 2V16C18 17.1046 17.1046 18 16 18H2C0.895431 18 0 17.1046 0 16V2ZM14.5061 3.65214C14.9744 3.94485 15.1168 4.5618 14.8241 5.03013L12.0191 9.51813L9.21408 14.0061C9.03662 14.2901 8.72882 14.4664 8.39411 14.4757C8.0594 14.4851 7.74221 14.3264 7.54911 14.0528L4.18311 9.28432C3.86462 8.83312 3.9722 8.20916 4.4234 7.89067C4.8746 7.57217 5.49856 7.67975 5.81705 8.13095L8.31545 11.6704L13.1281 3.97014C13.4208 3.5018 14.0377 3.35943 14.5061 3.65214Z" fill="#E4DAD7"/>
</svg>
