<svg width="16" height="17" viewBox="0 0 16 17" fill="none" xmlns="http://www.w3.org/2000/svg">
<path d="M9.5 9C9.5 9.82843 8.82843 10.5 8 10.5C7.17157 10.5 6.5 9.82843 6.5 9C6.5 8.44479 6.80165 7.96003 7.25 7.70067V4.875C7.25 4.46079 7.58579 4.125 8 4.125C8.41421 4.125 8.75 4.46079 8.75 4.875V7.70067C9.19835 7.96003 9.5 8.44479 9.5 9Z" fill="#EBD5D1"/>
<path fill-rule="evenodd" clip-rule="evenodd" d="M8 0C8.41421 0 8.75 0.335786 8.75 0.75V1.5C8.75 1.51239 8.7497 1.5247 8.74911 1.53694C10.2579 1.68656 11.6351 2.2833 12.7465 3.19279L13.0947 2.84467C13.3876 2.55178 13.8624 2.55178 14.1553 2.84467C14.4482 3.13756 14.4482 3.61244 14.1553 3.90533L13.8072 4.25345C14.8652 5.54635 15.5 7.19905 15.5 9C15.5 13.1421 12.1421 16.5 8 16.5C3.85786 16.5 0.5 13.1421 0.5 9C0.5 5.11068 3.46047 1.91282 7.25089 1.53694C7.2503 1.5247 7.25 1.51239 7.25 1.5V0.75C7.25 0.335786 7.58579 0 8 0ZM8 3C4.68629 3 2 5.68629 2 9C2 12.3137 4.68629 15 8 15C11.3137 15 14 12.3137 14 9C14 5.68629 11.3137 3 8 3Z" fill="#EBD5D1"/>
</svg>
